<svg width="727" height="907" viewBox="0 0 727 907" fill="none" xmlns="http://www.w3.org/2000/svg">
<g clip-path="url(#clip0_209_14)">
<path d="M136.242 813.094L131.206 819.31L131.216 819.318L131.226 819.325L136.242 813.094ZM41.3203 619.734V611.734H33.1603L33.3219 619.893L41.3203 619.734ZM236.438 619.734L244.329 618.419L243.215 611.734H236.438V619.734ZM282.141 694.148L277.325 700.537L277.348 700.554L277.372 700.572L282.141 694.148ZM472.57 684.773L466.913 679.117L466.892 679.139L466.87 679.161L472.57 684.773ZM473.156 484.969L467.371 490.495L467.392 490.516L467.413 490.538L473.156 484.969ZM299.133 463.875L295.412 456.793L295.387 456.806L295.362 456.82L299.133 463.875ZM244.641 514.852V522.852H249.075L251.425 519.092L244.641 514.852ZM54.7969 514.852L46.8228 514.208L46.1247 522.852H54.7969V514.852ZM94.6406 21.4922V13.4922H87.2607L86.6666 20.8482L94.6406 21.4922ZM660.656 21.4922H668.656V13.4922H660.656V21.4922ZM660.656 186.727V194.727H668.656V186.727H660.656ZM261.047 186.727V178.727H253.631L253.07 186.122L261.047 186.727ZM245.227 395.32L237.249 394.715L236.597 403.32H245.227V395.32ZM249.328 395.32V403.32H254.135L256.392 399.076L249.328 395.32ZM322.57 323.25L326.317 330.318L326.35 330.301L326.383 330.283L322.57 323.25ZM619.055 803.719L624.406 809.665L624.408 809.663L619.055 803.719ZM372.961 880.094C278.704 880.094 201.677 855.501 141.259 806.862L131.226 819.325C195.026 870.687 275.812 896.094 372.961 896.094V880.094ZM141.278 806.878C81.3775 758.351 50.8342 696.108 49.3187 619.576L33.3219 619.893C34.9314 701.174 67.6694 767.837 131.206 819.31L141.278 806.878ZM41.3203 627.734H236.438V611.734H41.3203V627.734ZM228.546 621.05C233.972 653.606 250.35 680.202 277.325 700.537L286.956 687.76C263.15 669.814 249.059 646.8 244.329 618.419L228.546 621.05ZM277.372 700.572C304.695 720.857 337.278 730.859 374.719 730.859V714.859C340.284 714.859 311.149 705.721 286.909 687.725L277.372 700.572ZM374.719 730.859C416.794 730.859 451.567 717.507 478.271 690.386L466.87 679.161C443.573 702.821 413.112 714.859 374.719 714.859V730.859ZM478.227 690.43C505.305 663.353 518.656 628.413 518.656 586.336H502.656C502.656 624.728 490.617 655.413 466.913 679.117L478.227 690.43ZM518.656 586.336C518.656 542.826 505.583 506.917 478.899 479.4L467.413 490.538C490.729 514.583 502.656 546.252 502.656 586.336H518.656ZM478.941 479.443C452.255 451.506 417.455 437.711 375.305 437.711V453.711C413.623 453.711 444.057 466.088 467.371 490.495L478.941 479.443ZM375.305 437.711C346.361 437.711 319.681 444.041 295.412 456.793L302.854 470.957C324.678 459.49 348.78 453.711 375.305 453.711V437.711ZM295.362 456.82C271.467 469.591 252.266 487.556 237.857 510.612L251.425 519.092C264.359 498.397 281.486 482.378 302.904 470.93L295.362 456.82ZM244.641 506.852H54.7969V522.852H244.641V506.852ZM62.7709 515.496L102.615 22.1362L86.6666 20.8482L46.8228 514.208L62.7709 515.496ZM94.6406 29.4922H660.656V13.4922H94.6406V29.4922ZM652.656 21.4922V186.727H668.656V21.4922H652.656ZM660.656 178.727H261.047V194.727H660.656V178.727ZM253.07 186.122L237.249 394.715L253.204 395.925L269.024 187.332L253.07 186.122ZM245.227 403.32H249.328V387.32H245.227V403.32ZM256.392 399.076C272.01 369.7 295.233 346.797 326.317 330.318L318.823 316.182C285.064 334.078 259.459 359.222 242.264 391.565L256.392 399.076ZM326.383 330.283C357.434 313.448 394.162 304.883 436.828 304.883V288.883C391.994 288.883 352.55 297.896 318.757 316.217L326.383 330.283ZM436.828 304.883C515.323 304.883 579.401 330.896 629.721 382.729L641.201 371.584C587.614 316.386 519.27 288.883 436.828 288.883V304.883ZM629.721 382.729C680.067 434.588 705.391 500.483 705.391 581.062H721.391C721.391 496.799 694.762 426.755 641.201 371.584L629.721 382.729ZM705.391 581.062C705.391 670.808 674.754 742.789 613.701 797.774L624.408 809.663C689.137 751.367 721.391 674.911 721.391 581.062H705.391ZM613.703 797.772C552.964 852.437 472.979 880.094 372.961 880.094V896.094C476.068 896.094 560.145 867.5 624.406 809.665L613.703 797.772Z" fill="#FFCE04"/>
</g>
<defs>
<clipPath id="clip0_209_14">
<rect width="727" height="907" fill="white"/>
</clipPath>
</defs>
</svg>
